<?xml version="1.0"?>
<svg xmlns:rdf="http://www.w3.org/1999/02/22-rdf-syntax-ns#" xmlns="http://www.w3.org/2000/svg" xmlns:cc="http://creativecommons.org/ns#" xmlns:dc="http://purl.org/dc/elements/1.1/" xmlns:svg="http://www.w3.org/2000/svg" id="svg16405" viewBox="0 0 120 120" version="1.1">
  <title id="title16468">iOS 7 Icon Template</title>
  <g id="layer1" transform="translate(0 -932.36)">
    <g id="g16450" stroke="#000" transform="translate(-77.143 25.714)">
      <rect id="rect16346" stroke-opacity=".23858" fill-opacity=".076142" rx="24" ry="24" height="120" width="120" y="906.65" x="77.143" fill="#4f5522"/>
      <path id="path16349" stroke-linejoin="round" d="m-260.11-621.46c-12.672-12.32-12.957-32.579-0.63733-45.25 12.32-12.672 32.579-12.957 45.25-0.63733 12.672 12.32 12.957 32.579 0.63733 45.25-12.155 12.503-32.083 12.972-44.813 1.0548" stroke-opacity=".23858" transform="matrix(.98437 0 0 .98437 371.23 1601)" stroke-linecap="round" stroke-width="1.0159" fill="none"/>
      <path id="path16351" stroke-linejoin="round" d="m-260.11-621.46c-12.672-12.32-12.957-32.579-0.63733-45.25 12.32-12.672 32.579-12.957 45.25-0.63733 12.672 12.32 12.957 32.579 0.63733 45.25-12.155 12.503-32.083 12.972-44.813 1.0548" stroke-opacity=".23858" transform="matrix(1.6406 0 0 1.6406 527.28 2023.9)" stroke-linecap="round" stroke-width=".60952" fill="none"/>
      <path id="path16353" stroke-linejoin="round" d="m-260.11-621.46c-12.672-12.32-12.957-32.579-0.63733-45.25 12.32-12.672 32.579-12.957 45.25-0.63733 12.672 12.32 12.957 32.579 0.63733 45.25-12.155 12.503-32.083 12.972-44.813 1.0548" stroke-opacity=".23858" transform="matrix(.68750 0 0 .68750 300.63 1409.7)" stroke-linecap="round" stroke-width="1.4545" fill="none"/>
      <path id="path16355" stroke-width="1px" fill="none" stroke-opacity=".23922" d="m77.637 944.65h119.01"/>
      <path id="path16357" stroke-width="1px" fill="none" stroke-opacity=".23922" d="m77.637 988.65h119.01"/>
      <path id="path16359" stroke-width="1px" fill="none" stroke-opacity=".23922" d="m137.14 907.14v119.01"/>
      <path id="path16361" stroke-width="1px" fill="none" stroke-opacity=".23922" d="m159.14 907.14v119.01"/>
      <path id="path16363" stroke-width="1px" fill="none" stroke-opacity=".23922" d="m115.14 907.14v119.01"/>
      <path id="path16365" stroke-width="1px" fill="none" stroke-opacity=".23922" d="m77.637 966.65h119.01"/>
      <path id="path16367" stroke-width="1px" fill="none" stroke-opacity=".23922" d="m77.637 1019.1h119.01"/>
      <path id="path16369" stroke-width="1px" fill="none" stroke-opacity=".23922" d="m77.637 914.15h119.01"/>
      <path id="path16371" stroke-width="1px" fill="none" stroke-opacity=".23922" d="m189.64 907.14v119.01"/>
      <path id="path16373" stroke-width="1px" fill="none" stroke-opacity=".23922" d="m84.643 907.14v119.01"/>
      <path id="path16375" fill="none" stroke-opacity=".23922" d="m77.643 1026.1 119-118.95"/>
      <path id="path16377" fill="none" stroke-opacity=".23922" d="m196.64 1026.1-119-118.95"/>
    </g>
  </g>
  <metadata>
    <rdf:RDF>
      <cc:Work>
        <dc:format>image/svg+xml</dc:format>
        <dc:type rdf:resource="http://purl.org/dc/dcmitype/StillImage"/>
        <cc:license rdf:resource="http://creativecommons.org/licenses/publicdomain/"/>
        <dc:publisher>
          <cc:Agent rdf:about="http://openclipart.org/">
            <dc:title>Openclipart</dc:title>
          </cc:Agent>
        </dc:publisher>
        <dc:title>iOS 7 Icon Template</dc:title>
        <dc:date>2013-06-13T06:40:28</dc:date>
        <dc:description>A template for creating iOS 7 icons</dc:description>
        <dc:source>http://openclipart.org/detail/179283/ios-7-icon-template-by-arsenius-179283</dc:source>
        <dc:creator>
          <cc:Agent>
            <dc:title>arsenius</dc:title>
          </cc:Agent>
        </dc:creator>
        <dc:subject>
          <rdf:Bag>
            <rdf:li>Icon</rdf:li>
            <rdf:li>Template</rdf:li>
            <rdf:li>iOS 7</rdf:li>
          </rdf:Bag>
        </dc:subject>
      </cc:Work>
      <cc:License rdf:about="http://creativecommons.org/licenses/publicdomain/">
        <cc:permits rdf:resource="http://creativecommons.org/ns#Reproduction"/>
        <cc:permits rdf:resource="http://creativecommons.org/ns#Distribution"/>
        <cc:permits rdf:resource="http://creativecommons.org/ns#DerivativeWorks"/>
      </cc:License>
    </rdf:RDF>
  </metadata>
</svg>
